# Alias OBJ Model File
# Exported from SketchUp, (c) 2000-2012 Trimble Navigation Limited
# File units = millimeters

mtllib backInner.mtl

g Mesh1 Group1 Model

usemtl wood3
v 14.8308 -2.18709 -59.9912
vt 0.251369 -0.0370693
vn 2.77556e-16 -7.88802e-17 1
v -15.1692 12.2129 -59.9912
vt -0.257106 0.206998
v -15.1692 -2.18709 -59.9912
vt -0.257106 -0.0370693
f 1/1/1 2/2/1 3/3/1

v 14.8308 12.2129 -59.9912
vt 0.251369 0.206998
f 2/2/1 1/1/1 4/4/1

vn -2.77556e-16 7.88802e-17 -1
f 3/3/2 2/2/2 1/1/2

v -15.1692 12.2129 -69.9912
vt -1.18629 0.206998
vn -1 -1.21289e-16 2.77556e-16
vt -1.0168 -0.0370693
vt -1.0168 0.206998
f 5/5/3 3/6/3 2/7/3

v -15.1692 -2.18709 -69.9912
vt -1.18629 -0.0370693
f 3/6/3 5/5/3 6/8/3

vn 1 1.21289e-16 -2.77556e-16
f 2/7/4 3/6/4 5/5/4

f 6/8/4 5/5/4 3/6/4

v -50.1692 12.2129 -69.9912
vt -0.850326 0.206998
f 7/9/1 6/3/1 5/2/1

v -50.1692 -2.18709 -69.9912
vt -0.850326 -0.0370693
f 6/3/1 7/9/1 8/10/1

f 8/10/2 7/9/2 6/3/2

v -50.1393 12.2129 -70.448
vt 0.0854176 0.244068
vn -0.991445 -1.09955e-16 -0.130526
vt 0.0931828 7.25896e-18
vn -0.997859 -1.1587e-16 -0.0654031
vt 0.0931828 0.244068
f 9/11/5 8/12/6 7/13/6

v -50.1393 -2.18709 -70.448
vt 0.0854176 1.28445e-18
f 8/12/6 9/11/5 10/14/5

vt -1.12814 0.206998
vn 0.997859 1.1587e-16 0.0654031
vt -1.12814 -0.0370693
vt -1.1359 0.206998
vn 0.991445 1.09955e-16 0.130526
f 7/15/7 8/16/7 9/17/8

vt -1.1359 -0.0370693
f 10/18/8 9/17/8 8/16/7

v -50.05 12.2129 -70.897
vt 0.0776524 0.244068
vn -0.965926 -9.67404e-17 -0.258819
vt 0.0854176 -2.44496e-18
f 11/19/9 10/20/5 9/11/5

v -50.05 -2.18709 -70.897
vt 0.0776524 -2.44496e-18
f 10/20/5 11/19/9 12/21/9

vt -1.0053 0.206998
vt -1.0053 -0.0370693
vt -1.01306 0.206998
vn 0.965926 9.67404e-17 0.258819
f 9/22/8 10/23/8 11/24/10

vt -1.01306 -0.0370693
f 12/25/10 11/24/10 10/23/8

v -49.9028 12.2129 -71.3306
vt 0.0698871 0.244068
vn -0.92388 -8.18702e-17 -0.382683
vt 0.0776524 -1.27772e-17
f 13/26/11 12/27/9 11/19/9

v -49.9028 -2.18709 -71.3306
vt 0.0698871 -1.87517e-17
f 12/27/9 13/26/11 14/28/11

vt -0.865195 0.206998
vt -0.865195 -0.0370693
vt -0.872955 0.206998
vn 0.92388 8.18702e-17 0.382683
f 11/29/10 12/30/10 13/31/12

vt -0.872955 -0.0370693
f 14/32/12 13/31/12 12/30/10

v -49.7003 12.2129 -71.7412
vt 0.0621219 0.244068
vn -0.866025 -6.55992e-17 -0.5
vt 0.0698871 -1.7916e-17
f 15/33/13 14/34/11 13/26/11

v -49.7003 -2.18709 -71.7412
vt 0.0621219 -1.7916e-17
f 14/34/11 15/33/13 16/35/13

vt -0.71022 0.206998
vt -0.71022 -0.0370693
vt -0.71798 0.206998
vn 0.866025 6.55992e-17 0.5
f 13/36/12 14/37/12 15/38/14

vt -0.71798 -0.0370693
f 16/39/14 15/38/14 14/37/12

v -49.446 12.2129 -72.1218
vt 0.0543567 0.244068
vn -0.793353 -4.82057e-17 -0.608761
vt 0.0621219 -6.01646e-18
f 17/40/15 16/41/13 15/33/13

v -49.446 -2.18709 -72.1218
vt 0.0543567 -6.01646e-18
f 16/41/13 17/40/15 18/42/15

vt -0.543027 0.206998
vt -0.543027 -0.0370693
vt -0.550786 0.206998
vn 0.793353 4.82057e-17 0.608761
f 15/43/14 16/44/14 17/45/16

vt -0.550786 -0.0370693
f 18/46/16 17/45/16 16/44/14

v -49.1441 12.2129 -72.466
vt 0.0465914 0.244068
vn -0.707107 -2.99875e-17 -0.707107
vt 0.0543567 -1.29731e-17
f 19/47/17 18/48/15 17/40/15

v -49.1441 -2.18709 -72.466
vt 0.0465914 -1.29731e-17
f 18/48/15 19/47/17 20/49/17

vt -0.366476 0.206998
vt -0.366476 -0.0370693
vt -0.374235 0.206998
vn 0.707107 2.99875e-17 0.707107
f 17/50/16 18/51/16 19/52/18

vt -0.374235 -0.0370693
f 20/53/18 19/52/18 18/51/16

v -48.7999 -2.18709 -72.7679
vt 0.0388262 -2.08495e-17
vn -0.608761 -1.12561e-17 -0.793353
vt 0.0465914 -1.4875e-17
f 19/47/17 21/54/19 20/55/17

v -48.7999 12.2129 -72.7679
vt 0.0388262 0.244068
f 21/54/19 19/47/17 22/56/19

vt -0.183588 -0.0370693
vt -0.191348 -0.0370693
vn 0.608761 1.12561e-17 0.793353
vt -0.183588 0.206998
f 20/57/18 21/58/20 19/59/18

vt -0.832951 1.22824
vn -1.21289e-16 1 7.88802e-17
vt -0.257106 1.18629
vt -0.827117 1.23335
f 20/60/21 6/61/21 21/62/21

vt -0.838067 1.2224
f 18/63/21 6/61/21 20/60/21

vt -0.842378 1.21595
f 16/64/21 6/61/21 18/63/21

vt -0.84581 1.20899
f 14/65/21 6/61/21 16/64/21

vt -0.848305 1.20164
f 12/66/21 6/61/21 14/65/21

vt -0.849818 1.19403
f 10/67/21 6/61/21 12/66/21

vt -0.850326 1.18629
f 6/61/21 10/67/21 8/68/21

vn 1.21289e-16 -1 -7.88802e-17
f 8/68/22 10/67/22 6/61/22

f 12/66/22 6/61/22 10/67/22

f 14/65/22 6/61/22 12/66/22

f 16/64/22 6/61/22 14/65/22

f 18/63/22 6/61/22 16/64/22

f 20/60/22 6/61/22 18/63/22

f 21/62/22 6/61/22 20/60/22

v -48.4192 -2.18709 -73.0223
vt -0.820665 1.23767
f 21/62/21 6/61/21 23/69/21

f 23/69/22 6/61/22 21/62/22

v -48.0086 -2.18709 -73.2247
vt -0.813705 1.2411
f 23/69/21 6/61/21 24/70/21

f 24/70/22 6/61/22 23/69/22

v -47.5751 -2.18709 -73.3719
vt -0.806358 1.24359
f 24/70/21 6/61/21 25/71/21

f 25/71/22 6/61/22 24/70/22

v -47.1261 -2.18709 -73.4612
vt -0.798747 1.24511
f 25/71/21 6/61/21 26/72/21

f 26/72/22 6/61/22 25/71/22

v -46.6692 -2.18709 -73.4912
vt -0.791004 1.24561
f 26/72/21 6/61/21 27/73/21

f 27/73/22 6/61/22 26/72/22

v 46.3308 -2.18709 -73.4912
vt 0.785267 1.24561
f 27/73/21 6/61/21 28/74/21

f 28/74/22 6/61/22 27/73/22

v 14.8308 -2.18709 -69.9912
vt 0.251369 1.18629
f 28/74/21 6/61/21 29/75/21

f 29/75/22 6/61/22 28/74/22

vt 0.251369 1.0168
f 29/75/21 6/61/21 1/76/21

f 1/76/22 6/61/22 29/75/22

vt -0.257106 1.0168
f 1/76/21 6/61/21 3/77/21

f 3/77/22 6/61/22 1/76/22

vt 1.18629 -0.0370693
vt 1.0168 0.206998
vt 1.0168 -0.0370693
f 29/78/4 4/79/4 1/80/4

v 14.8308 12.2129 -69.9912
vt 1.18629 0.206998
f 4/79/4 29/78/4 30/81/4

f 1/80/3 4/79/3 29/78/3

f 4/4/2 1/1/2 2/2/2

f 4/76/21 5/61/21 2/77/21

f 30/75/21 5/61/21 4/76/21

v 46.3308 12.2129 -73.4912
f 31/74/21 5/61/21 30/75/21

v -46.6692 12.2129 -73.4912
f 32/73/21 5/61/21 31/74/21

v -47.1261 12.2129 -73.4612
f 33/72/21 5/61/21 32/73/21

v -47.5751 12.2129 -73.3719
f 34/71/21 5/61/21 33/72/21

v -48.0086 12.2129 -73.2247
f 35/70/21 5/61/21 34/71/21

v -48.4192 12.2129 -73.0223
f 36/69/21 5/61/21 35/70/21

f 22/62/21 5/61/21 36/69/21

f 19/60/21 5/61/21 22/62/21

f 17/63/21 5/61/21 19/60/21

f 15/64/21 5/61/21 17/63/21

f 13/65/21 5/61/21 15/64/21

f 11/66/21 5/61/21 13/65/21

f 9/67/21 5/61/21 11/66/21

f 5/61/21 9/67/21 7/68/21

f 7/68/22 9/67/22 5/61/22

f 11/66/22 5/61/22 9/67/22

f 13/65/22 5/61/22 11/66/22

f 15/64/22 5/61/22 13/65/22

f 17/63/22 5/61/22 15/64/22

f 19/60/22 5/61/22 17/63/22

f 22/62/22 5/61/22 19/60/22

f 36/69/22 5/61/22 22/62/22

f 35/70/22 5/61/22 36/69/22

f 34/71/22 5/61/22 35/70/22

f 33/72/22 5/61/22 34/71/22

f 32/73/22 5/61/22 33/72/22

f 31/74/22 5/61/22 32/73/22

f 30/75/22 5/61/22 31/74/22

f 4/76/22 5/61/22 30/75/22

f 2/77/22 5/61/22 4/76/22

f 30/81/3 29/78/3 4/79/3

v 49.8308 -2.18709 -69.9912
vt 0.844589 -0.0370693
f 37/82/1 30/4/1 29/1/1

v 49.8308 12.2129 -69.9912
vt 0.844589 0.206998
f 30/4/1 37/82/1 38/83/1

f 29/1/2 30/4/2 37/82/2

f 38/83/2 37/82/2 30/4/2

v 49.8008 -2.18709 -70.448
vt 0.00776524 -1.1686e-17
vn 0.991445 1.30547e-16 -0.130526
vt 5.55112e-17 0.244068
vn 0.997859 1.26188e-16 -0.0654031
vt 5.55112e-17 -5.71153e-18
f 39/84/23 38/85/24 37/86/24

v 49.8008 12.2129 -70.448
vt 0.00776524 0.244068
f 38/85/24 39/84/23 40/87/23

vt 1.12851 -0.0370693
vn -0.997859 -1.26188e-16 0.0654031
vt 1.12851 0.206998
vt 1.13627 -0.0370693
vn -0.991445 -1.30547e-16 0.130526
f 37/88/25 38/89/25 39/90/26

vt 1.13627 0.206998
f 40/91/26 39/90/26 38/89/25

v 49.7115 -2.18709 -70.897
vt 0.0155305 -6.85336e-18
vn 0.965926 1.37572e-16 -0.258819
vt 0.00776524 -6.85336e-18
f 41/92/27 40/87/23 39/93/23

v 49.7115 12.2129 -70.897
vt 0.0155305 0.244068
f 40/87/23 41/92/27 42/94/27

vt 1.00642 -0.0370693
vt 1.00642 0.206998
vt 1.01418 -0.0370693
vn -0.965926 -1.37572e-16 0.258819
f 39/95/26 40/96/26 41/97/28

vt 1.01418 0.206998
f 42/98/28 41/97/28 40/96/26

v 49.5643 -2.18709 -71.3306
vt 0.0232957 -1.20336e-17
vn 0.92388 1.42242e-16 -0.382683
vt 0.0155305 -6.05906e-18
f 43/99/29 42/94/27 41/100/27

v 49.5643 12.2129 -71.3306
vt 0.0232957 0.244068
f 42/94/27 43/99/29 44/101/29

vt 0.867039 -0.0370693
vt 0.867039 0.206998
vt 0.874799 -0.0370693
vn -0.92388 -1.42242e-16 0.382683
f 41/102/28 42/103/28 43/104/30

vt 0.874799 0.206998
f 44/105/30 43/104/30 42/103/28

v 49.3619 -2.18709 -71.7412
vt 0.0310609 -2.99331e-18
vn 0.866025 1.44479e-16 -0.5
vt 0.0232957 -2.99331e-18
f 45/106/31 44/101/29 43/107/29

v 49.3619 12.2129 -71.7412
vt 0.0310609 0.244068
f 44/101/29 45/106/31 46/108/31

vt 0.712757 -0.0370693
vt 0.712757 0.206998
vt 0.720517 -0.0370693
vn -0.866025 -1.44479e-16 0.5
f 43/109/30 44/110/30 45/111/32

vt 0.720517 0.206998
f 46/112/32 45/111/32 44/110/30

v 49.1075 -2.18709 -72.1218
vt 0.0388262 -1.5799e-17
vn 0.793353 1.44244e-16 -0.608761
vt 0.0310609 -9.8245e-18
f 47/113/33 46/108/31 45/114/31

v 49.1075 12.2129 -72.1218
f 46/108/31 47/113/33 48/56/33

vt 0.546214 -0.0370693
vt 0.546214 0.206998
vt 0.553974 -0.0370693
vn -0.793353 -1.44244e-16 0.608761
f 45/115/32 46/116/32 47/117/34

vt 0.553974 0.206998
f 48/118/34 47/117/34 46/116/32

v 48.8056 -2.18709 -72.466
vt 0.0465914 -1.53626e-17
vn 0.707107 1.41541e-16 -0.707107
vt 0.0388262 -1.53626e-17
f 49/119/35 48/56/33 47/120/33

v 48.8056 12.2129 -72.466
f 48/56/33 49/119/35 50/47/35

vt 0.370258 -0.0370693
vt 0.370258 0.206998
vt 0.378018 -0.0370693
vn -0.707107 -1.41541e-16 0.707107
f 47/121/34 48/122/34 49/123/36

vt 0.378018 0.206998
f 50/124/36 49/123/36 48/122/34

vt 0.0465914 -1.48798e-17
v 48.4614 12.2129 -72.7679
vn 0.608761 1.36416e-16 -0.793353
f 49/125/35 51/40/37 50/47/35

v 48.4614 -2.18709 -72.7679
vt 0.0543567 -1.48798e-17
f 51/40/37 49/125/35 52/126/37

vt 0.195661 -0.0370693
vn -0.608761 -1.36416e-16 0.793353
vt 0.187901 -0.0370693
vt 0.195661 0.206998
f 52/127/38 49/128/36 51/129/38

vt 0.82138 1.23335
vt 0.844589 1.18629
vt 0.827214 1.22824
f 52/130/21 37/131/21 49/132/21

v 48.0808 -2.18709 -73.0223
vt 0.814928 1.23767
f 53/133/21 37/131/21 52/130/21

v 47.6702 -2.18709 -73.2247
vt 0.807969 1.2411
f 54/134/21 37/131/21 53/133/21

v 47.2366 -2.18709 -73.3719
vt 0.800621 1.24359
f 55/135/21 37/131/21 54/134/21

v 46.7876 -2.18709 -73.4612
vt 0.79301 1.24511
f 56/136/21 37/131/21 55/135/21

f 28/74/21 37/131/21 56/136/21

f 28/74/21 29/75/21 37/131/21

f 37/131/22 29/75/22 28/74/22

f 56/136/22 37/131/22 28/74/22

f 55/135/22 37/131/22 56/136/22

f 54/134/22 37/131/22 55/135/22

f 53/133/22 37/131/22 54/134/22

f 52/130/22 37/131/22 53/133/22

f 49/132/22 37/131/22 52/130/22

vt 0.832331 1.2224
f 49/132/21 37/131/21 47/137/21

f 47/137/22 37/131/22 49/132/22

vt 0.836642 1.21595
f 47/137/21 37/131/21 45/138/21

f 45/138/22 37/131/22 47/137/22

vt 0.840074 1.20899
f 45/138/21 37/131/21 43/139/21

f 43/139/22 37/131/22 45/138/22

vt 0.842568 1.20164
f 43/139/21 37/131/21 41/140/21

f 41/140/22 37/131/22 43/139/22

vt 0.844082 1.19403
f 41/140/21 37/131/21 39/141/21

f 39/141/22 37/131/22 41/140/22

v 48.0808 12.2129 -73.0223
vn 0.5 1.28957e-16 -0.866025
vt 0.0543567 -4.05127e-18
vt 0.0621219 -4.05127e-18
f 57/33/39 52/142/37 53/143/39

f 52/142/37 57/33/39 51/40/37

vt 0.0100219 -0.0370693
vn -0.5 -1.28957e-16 0.866025
vt 0.00226221 -0.0370693
vt 0.0100219 0.206998
f 53/144/40 52/145/38 57/146/40

vt 0.00226221 0.206998
f 51/147/38 57/146/40 52/145/38

f 57/133/21 38/131/21 51/130/21

v 47.6702 12.2129 -73.2247
f 58/134/21 38/131/21 57/133/21

v 47.2366 12.2129 -73.3719
f 59/135/21 38/131/21 58/134/21

v 46.7876 12.2129 -73.4612
f 60/136/21 38/131/21 59/135/21

f 31/74/21 38/131/21 60/136/21

f 31/74/21 30/75/21 38/131/21

f 38/131/22 30/75/22 31/74/22

f 60/136/22 38/131/22 31/74/22

f 59/135/22 38/131/22 60/136/22

f 58/134/22 38/131/22 59/135/22

f 57/133/22 38/131/22 58/134/22

f 51/130/22 38/131/22 57/133/22

f 51/130/21 38/131/21 50/132/21

f 50/132/22 38/131/22 51/130/22

f 50/132/21 38/131/21 48/137/21

f 48/137/22 38/131/22 50/132/22

f 48/137/21 38/131/21 46/138/21

f 46/138/22 38/131/22 48/137/22

f 46/138/21 38/131/21 44/139/21

f 44/139/22 38/131/22 46/138/22

f 44/139/21 38/131/21 42/140/21

f 42/140/22 38/131/22 44/139/22

f 42/140/21 38/131/21 40/141/21

f 40/141/22 38/131/22 42/140/22

vt 0.187901 0.206998
f 50/148/36 51/129/38 49/128/36

vt 0.0621219 -2.06644e-17
vn 0.382683 1.19291e-16 -0.92388
f 53/149/39 58/26/41 57/33/39

vt 0.0698871 -2.66389e-17
f 58/26/41 53/149/39 54/150/41

vt -0.175722 -0.0370693
vn -0.382683 -1.19291e-16 0.92388
vt -0.183482 -0.0370693
vt -0.175722 0.206998
f 54/151/42 53/152/40 58/153/42

vt -0.183482 0.206998
f 57/154/40 58/153/42 53/152/40

vt 0.0698871 -1.90224e-17
vn 0.258819 1.07584e-16 -0.965926
f 54/155/41 59/19/43 58/26/41

vt 0.0776524 -1.90224e-17
f 59/19/43 54/155/41 55/156/43

vt -0.358393 -0.0370693
vn -0.258819 -1.07584e-16 0.965926
vt -0.366152 -0.0370693
vt -0.358393 0.206998
f 55/157/44 54/158/42 59/159/44

vt -0.366152 0.206998
f 58/160/42 59/159/44 54/158/42

vt 0.0776524 -2.51384e-17
vn 0.130526 9.40367e-17 -0.991445
f 55/161/43 60/11/45 59/19/43

vt 0.0854176 -2.51384e-17
f 60/11/45 55/161/43 56/162/45

vt -0.534865 -0.0370693
vn -0.130526 -9.40367e-17 0.991445
vt -0.542625 -0.0370693
vt -0.534865 0.206998
f 56/163/46 55/164/44 60/165/46

vt -0.542625 0.206998
f 59/166/44 60/165/46 55/164/44

vt 0.0854176 -2.90514e-17
vn 0.0654031 8.6644e-17 -0.997859
f 56/167/45 31/13/47 60/11/45

vt 0.0931828 -2.30769e-17
f 31/13/47 56/167/45 28/168/47

vt -0.702119 -0.0370693
vn -0.0654031 -8.6644e-17 0.997859
vt -0.709879 -0.0370693
vt -0.702119 0.206998
f 28/169/48 56/170/46 31/171/48

vt -0.709879 0.206998
f 60/172/46 31/171/48 56/170/46

vt -0.785267 -0.0370693
vn 7.23078e-16 7.88802e-17 -1
vt 0.791004 0.206998
vt -0.785267 0.206998
f 28/173/49 32/174/49 31/175/49

vt 0.791004 -0.0370693
f 32/174/49 28/173/49 27/176/49

vn -7.23078e-16 -7.88802e-17 1
f 27/176/50 28/173/50 32/174/50

f 31/175/50 32/174/50 28/173/50

vt 1.80411e-16 -1.58858e-17
vn -0.0654031 7.07786e-17 -0.997859
vn -0.130526 6.2374e-17 -0.991445
vt 1.80411e-16 0.244068
f 27/177/51 33/87/52 32/178/51

vt 0.00776524 -1.58858e-17
f 33/87/52 27/177/51 26/179/52

vt 0.715603 -0.0370693
vn 0.130526 -6.2374e-17 0.991445
vt 0.707843 -0.0370693
vn 0.0654031 -7.07786e-17 0.997859
vt 0.715603 0.206998
f 26/180/53 27/181/54 33/182/53

vt 0.707843 0.206998
f 32/183/54 33/182/53 27/181/54

vt 0.00776524 -1.74591e-17
vn -0.258819 4.48005e-17 -0.965926
f 26/184/52 34/94/55 33/87/52

vt 0.0155305 -2.34336e-17
f 34/94/55 26/184/52 25/185/55

vt 0.548251 -0.0370693
vn 0.258819 -4.48005e-17 0.965926
vt 0.540491 -0.0370693
vt 0.548251 0.206998
f 25/186/56 26/187/53 34/188/56

vt 0.540491 0.206998
f 33/189/53 34/188/56 26/187/53

vt 0.0155305 -2.50872e-17
vn -0.382683 2.64605e-17 -0.92388
f 25/190/55 35/101/57 34/94/55

vt 0.0232957 -2.50872e-17
f 35/101/57 25/190/55 24/191/57

vt 0.371585 -0.0370693
vn 0.382683 -2.64605e-17 0.92388
vt 0.363825 -0.0370693
vt 0.371585 0.206998
f 24/192/58 25/193/56 35/194/58

vt 0.363825 0.206998
f 34/195/56 35/194/58 25/193/56

vt 0.0232957 -2.10866e-17
vn -0.5 7.6678e-18 -0.866025
f 24/196/57 36/108/59 35/101/57

vt 0.0310609 -1.51121e-17
f 36/108/59 24/196/57 23/197/59

vt 0.188627 -0.0370693
vn 0.5 -7.6678e-18 0.866025
vt 0.180867 -0.0370693
vt 0.188627 0.206998
f 23/198/60 24/199/58 36/200/60

vt 0.180867 0.206998
f 35/201/58 36/200/60 24/199/58

vt 0.0310609 -1.7623e-17
f 23/202/59 22/56/19 36/108/59

vt 0.0388262 -1.7623e-17
f 22/56/19 23/202/59 21/203/19

vt 0.00250762 -0.0370693
vt -0.00525208 -0.0370693
vt 0.00250762 0.206998
f 21/204/20 23/205/60 22/206/20

vt -0.00525208 0.206998
f 36/207/60 22/206/20 23/205/60

vt -0.191348 0.206998
f 22/208/20 19/59/18 21/58/20

f 5/2/2 6/3/2 7/9/2

