# Alias OBJ Model File
# Exported from SketchUp, (c) 2000-2012 Trimble Navigation Limited
# File units = millimeters

mtllib frontInner.mtl

g Mesh1 Group1 Model

usemtl wood3
v -50.1393 -3.20797 73.4657
vt 0.15339 3.93838e-15
vn -0.991445 -6.69535e-16 0.130526
v -50.1692 10.792 73.0088
vt 0.135365 0.551181
vn -0.997859 2.89664e-17 0.0654031
v -50.1692 -3.20797 73.0088
vt 0.135365 4.16043e-15
f 1/1/1 2/2/2 3/3/2

v -50.1393 10.792 73.4657
vt 0.15339 0.551181
f 2/2/2 1/1/1 4/4/1

vn 0.997859 -2.89664e-17 -0.0654031
vn 0.991445 6.69535e-16 -0.130526
f 3/3/3 2/2/3 1/1/4

v -15.1692 10.792 73.0088
vt 2.55906 0.551181
vn -9.94601e-15 1.13587e-14 -1
vt 3.93701 9.21485e-15
vt 3.93701 0.551181
f 5/5/5 3/6/5 2/7/5

v -15.1692 -3.20797 73.0088
vt 2.55906 8.10463e-15
f 3/6/5 5/5/5 6/8/5

vn 9.94601e-15 -1.13587e-14 1
f 6/8/6 5/5/6 3/6/6

v -15.1692 10.792 63.0088
vt -7.25346e-15 0.551181
vn -1 -1.21289e-16 1.00534e-14
vt 0.393701 3.66374e-15
vt 0.393701 0.551181
f 7/9/7 6/10/7 5/11/7

v -15.1692 -3.20797 63.0088
vt -1.34707e-14 8.10463e-15
f 6/10/7 7/9/7 8/12/7

vn 1 1.21289e-16 -1.00534e-14
f 8/12/8 7/9/8 6/10/8

v 14.8308 10.792 63.0088
vt 1.37795 0.551181
vn -1.00534e-14 1.13587e-14 -1
f 9/13/9 8/8/9 7/5/9

v 14.8308 -3.20797 63.0088
vt 1.37795 7.10543e-15
f 8/8/9 9/13/9 10/14/9

vn 1.00534e-14 -1.13587e-14 1
f 10/14/10 9/13/10 8/8/10

vt 7.25346e-15 0.551181
v 14.8308 -3.20797 73.0088
vt -0.393701 2.66454e-15
vt 1.34707e-14 7.10543e-15
f 9/15/8 11/16/8 10/17/8

v 14.8308 10.792 73.0088
vt -0.393701 0.551181
f 11/16/8 9/15/8 12/18/8

f 10/17/7 11/16/7 9/15/7

vt 2.55906 0.393701
vn 7.27325e-16 1 1.08828e-14
vt 1.37795 0.393701
vt 1.37795 -6.41328e-29
f 6/19/11 11/20/11 10/21/11

v -46.6692 -3.20797 76.5088
vt 3.79921 0.531496
f 13/22/11 11/20/11 6/19/11

v 46.3308 -3.20797 76.5088
vt 0.137795 0.531496
f 14/23/11 11/20/11 13/22/11

v 46.7876 -3.20797 76.4789
vt 0.119809 0.530317
f 15/24/11 11/20/11 14/23/11

v 47.2366 -3.20797 76.3896
vt 0.102131 0.526801
f 16/25/11 11/20/11 15/24/11

v 47.6702 -3.20797 76.2424
vt 0.0850633 0.521007
f 17/26/11 11/20/11 16/25/11

v 48.0808 -3.20797 76.0399
vt 0.0688976 0.513035
f 18/27/11 11/20/11 17/26/11

v 48.4614 -3.20797 75.7856
vt 0.0539108 0.503021
f 19/28/11 11/20/11 18/27/11

v 48.8056 -3.20797 75.4837
vt 0.0403593 0.491137
f 20/29/11 11/20/11 19/28/11

v 49.1075 -3.20797 75.1395
vt 0.0284749 0.477585
f 21/30/11 11/20/11 20/29/11

v 49.3619 -3.20797 74.7588
vt 0.0184611 0.462598
f 22/31/11 11/20/11 21/30/11

v 49.5643 -3.20797 74.3482
vt 0.010489 0.446433
f 23/32/11 11/20/11 22/31/11

v 49.7115 -3.20797 73.9147
vt 0.00469526 0.429365
f 24/33/11 11/20/11 23/32/11

v 49.8008 -3.20797 73.4657
vt 0.00117886 0.411687
f 25/34/11 11/20/11 24/33/11

v 49.8308 -3.20797 73.0088
vt 1.2248e-30 0.393701
f 11/20/11 25/34/11 26/35/11

vn -7.27325e-16 -1 -1.08828e-14
f 26/35/12 25/34/12 11/20/12

v 49.8308 10.792 73.0088
vt -0.392858 0.551181
vn 0.997859 -1.42261e-15 0.0654031
vt -0.410882 1.26086e-15
vn 0.991445 -2.11178e-15 0.130526
vt -0.392858 1.4829e-15
f 27/36/13 25/37/14 26/38/13

v 49.8008 10.792 73.4657
vt -0.410882 0.551181
f 25/37/14 27/36/13 28/39/14

vn -0.997859 1.42261e-15 -0.0654031
vn -0.991445 2.11178e-15 -0.130526
f 26/38/15 25/37/16 27/36/15

f 28/39/16 27/36/15 25/37/16

vn 7.25711e-16 1 1.05824e-14
vt 4.6685e-16 0.393701
f 12/20/17 28/34/17 27/40/17

v 49.7115 10.792 73.9147
f 28/34/17 12/20/17 29/33/17

vn -7.25711e-16 -1 -1.05824e-14
f 27/40/18 28/34/18 12/20/18

f 29/33/18 12/20/18 28/34/18

v 49.5643 10.792 74.3482
f 29/33/17 12/20/17 30/32/17

f 30/32/18 12/20/18 29/33/18

v 49.3619 10.792 74.7588
f 30/32/17 12/20/17 31/31/17

f 31/31/18 12/20/18 30/32/18

v 49.1075 10.792 75.1395
f 31/31/17 12/20/17 32/30/17

f 32/30/18 12/20/18 31/31/18

v 48.8056 10.792 75.4837
f 32/30/17 12/20/17 33/29/17

f 33/29/18 12/20/18 32/30/18

v 48.4614 10.792 75.7856
f 33/29/17 12/20/17 34/28/17

f 34/28/18 12/20/18 33/29/18

v 48.0808 10.792 76.0399
f 34/28/17 12/20/17 35/27/17

f 35/27/18 12/20/18 34/28/18

v 47.6702 10.792 76.2424
f 35/27/17 12/20/17 36/26/17

f 36/26/18 12/20/18 35/27/18

v 47.2366 10.792 76.3896
f 36/26/17 12/20/17 37/25/17

f 37/25/18 12/20/18 36/26/18

v 46.7876 10.792 76.4789
f 37/25/17 12/20/17 38/24/17

f 38/24/18 12/20/18 37/25/18

v 46.3308 10.792 76.5088
f 38/24/17 12/20/17 39/23/17

f 39/23/18 12/20/18 38/24/18

v -46.6692 10.792 76.5088
f 39/23/17 12/20/17 40/22/17

f 40/22/18 12/20/18 39/23/18

f 40/22/17 12/20/17 5/19/17

f 5/19/18 12/20/18 40/22/18

vt 1.37795 4.27922e-16
f 5/19/17 12/20/17 9/41/17

f 9/41/18 12/20/18 5/19/18

f 12/18/7 9/15/7 11/16/7

vt 3.80648e-15 0.551181
f 27/42/5 11/14/5 12/13/5

vt 3.80648e-15 5.88418e-15
f 11/14/5 27/42/5 26/43/5

f 26/43/6 27/42/6 11/14/6

f 12/13/6 11/14/6 27/42/6

vt 2.55906 1.19742e-14
f 7/44/17 5/19/17 9/41/17

f 5/11/8 6/10/8 7/9/8

f 9/41/18 5/19/18 7/44/18

f 7/5/10 8/8/10 9/13/10

vt 3.93701 0.393701
f 40/22/17 5/19/17 2/45/17

f 2/45/18 5/19/18 40/22/18

f 2/7/6 3/6/6 5/5/6

v -47.1261 10.792 76.4789
vt 3.8172 0.530317
f 40/22/17 2/45/17 41/46/17

f 41/46/18 2/45/18 40/22/18

v -47.5751 10.792 76.3896
vt 3.83488 0.526801
f 41/46/17 2/45/17 42/47/17

f 42/47/18 2/45/18 41/46/18

v -48.0086 10.792 76.2424
vt 3.85194 0.521007
f 42/47/17 2/45/17 43/48/17

f 43/48/18 2/45/18 42/47/18

v -48.4192 10.792 76.0399
vt 3.86811 0.513035
f 43/48/17 2/45/17 44/49/17

f 44/49/18 2/45/18 43/48/18

v -48.7999 10.792 75.7856
vt 3.8831 0.503021
f 44/49/17 2/45/17 45/50/17

f 45/50/18 2/45/18 44/49/18

v -49.1441 10.792 75.4837
vt 3.89665 0.491137
f 45/50/17 2/45/17 46/51/17

f 46/51/18 2/45/18 45/50/18

v -49.446 10.792 75.1395
vt 3.90853 0.477585
f 46/51/17 2/45/17 47/52/17

f 47/52/18 2/45/18 46/51/18

v -49.7003 10.792 74.7588
vt 3.91855 0.462598
f 47/52/17 2/45/17 48/53/17

f 48/53/18 2/45/18 47/52/18

v -49.9028 10.792 74.3482
vt 3.92652 0.446433
f 48/53/17 2/45/17 49/54/17

f 49/54/18 2/45/18 48/53/18

v -50.05 10.792 73.9147
vt 3.93231 0.429365
f 49/54/17 2/45/17 50/55/17

f 50/55/18 2/45/18 49/54/18

vt 3.93583 0.411687
f 50/55/17 2/45/17 4/56/17

f 4/56/18 2/45/18 50/55/18

f 4/4/4 1/1/4 2/2/3

v -50.05 -3.20797 73.9147
vt -0.346041 9.17995e-15
vn -0.965926 -2.05496e-15 0.258819
vt -0.364066 0.551181
vt -0.364066 9.402e-15
f 51/57/19 4/58/1 1/59/1

vt -0.346041 0.551181
f 4/58/1 51/57/19 50/60/19

vn 0.965926 2.05496e-15 -0.258819
f 1/59/4 4/58/4 51/57/20

f 50/60/20 51/57/20 4/58/4

v -49.9028 -3.20797 74.3482
vt -0.839397 1.41316e-14
vn -0.92388 -3.40522e-15 0.382683
vt -0.857422 0.551181
vt -0.857422 1.43537e-14
f 52/61/21 50/62/19 51/63/19

vt -0.839397 0.551181
f 50/62/19 52/61/21 49/64/21

vn 0.92388 3.40522e-15 -0.382683
f 51/63/20 50/62/20 52/61/22

f 49/64/22 52/61/22 50/62/20

v -49.7003 -3.20797 74.7588
vt -1.31824 1.85615e-14
vn -0.866025 -4.69722e-15 0.5
vt -1.33626 0.551181
vt -1.33626 1.86725e-14
f 53/65/23 49/66/21 52/67/21

vt -1.31824 0.551181
f 49/66/21 53/65/23 48/68/23

vn 0.866025 4.69722e-15 -0.5
f 52/67/22 49/66/22 53/65/24

f 48/68/24 53/65/24 49/66/22

v -49.446 -3.20797 75.1395
vt -1.77437 2.19472e-14
vn -0.793353 -5.90885e-15 0.608761
vt -1.79239 0.551181
vt -1.79239 2.21693e-14
f 54/69/25 48/70/23 53/71/23

vt -1.77437 0.551181
f 48/70/23 54/69/25 47/72/25

vn 0.793353 5.90885e-15 -0.608761
f 53/71/24 48/70/24 54/69/26

f 47/72/26 54/69/26 48/70/24

v -49.1441 -3.20797 75.4837
vt -2.19998 2.42738e-14
vn -0.707107 -7.01937e-15 0.707107
vt -2.21801 0.551181
vt -2.21801 2.43849e-14
f 55/73/27 47/74/25 54/75/25

vt -2.19998 0.551181
f 47/74/25 55/73/27 46/76/27

vn 0.707107 7.01937e-15 -0.707107
f 54/75/26 47/74/26 55/73/28

f 46/76/28 55/73/28 47/74/26

vt -2.60583 2.53834e-14
vt -2.5878 0.551181
vn -0.608761 -8.0098e-15 0.793353
vt -2.60583 0.551181
f 55/77/27 45/78/29 46/79/27

v -48.7999 -3.20797 75.7856
vt -2.5878 2.52724e-14
f 45/78/29 55/77/27 56/80/29

vn 0.608761 8.0098e-15 -0.793353
f 56/80/30 55/77/28 45/78/30

f 56/50/11 3/45/11 55/51/11

v -48.4192 -3.20797 76.0399
f 57/49/11 3/45/11 56/50/11

v -48.0086 -3.20797 76.2424
f 58/48/11 3/45/11 57/49/11

v -47.5751 -3.20797 76.3896
f 59/47/11 3/45/11 58/48/11

v -47.1261 -3.20797 76.4789
f 60/46/11 3/45/11 59/47/11

f 13/22/11 3/45/11 60/46/11

f 13/22/11 6/19/11 3/45/11

f 6/19/12 11/20/12 13/22/12

f 10/21/12 11/20/12 6/19/12

vt 2.55906 1.15463e-14
f 8/81/11 6/19/11 10/21/11

f 10/21/12 6/19/12 8/81/12

f 13/22/12 11/20/12 14/23/12

f 14/23/12 11/20/12 15/24/12

f 15/24/12 11/20/12 16/25/12

f 16/25/12 11/20/12 17/26/12

f 17/26/12 11/20/12 18/27/12

f 18/27/12 11/20/12 19/28/12

f 19/28/12 11/20/12 20/29/12

f 20/29/12 11/20/12 21/30/12

f 21/30/12 11/20/12 22/31/12

f 22/31/12 11/20/12 23/32/12

f 23/32/12 11/20/12 24/33/12

f 24/33/12 11/20/12 25/34/12

vt -0.404006 0.551181
vt -0.422031 1.22841e-15
vn 0.965926 -3.46008e-15 0.258819
vt -0.404006 1.45045e-15
f 28/82/14 24/83/31 25/84/14

vt -0.422031 0.551181
f 24/83/31 28/82/14 29/85/31

vn -0.965926 3.46008e-15 -0.258819
f 25/84/16 24/83/32 28/82/16

f 29/85/32 28/82/16 24/83/32

vt -0.408088 0.551181
vt -0.426112 1.44956e-15
vn 0.92388 -4.74918e-15 0.382683
vt -0.408088 1.56058e-15
f 29/86/31 23/87/33 24/88/31

vt -0.426112 0.551181
f 23/87/33 29/86/31 30/89/33

vn -0.92388 4.74918e-15 -0.382683
f 24/88/32 23/87/34 29/86/32

f 30/89/34 29/86/32 23/87/34

vt -0.405033 0.551181
vt -0.423057 1.68881e-15
vn 0.866025 -5.95702e-15 0.5
vt -0.405033 1.91086e-15
f 30/90/33 22/91/35 23/92/33

vt -0.423057 0.551181
f 22/91/35 30/90/33 31/93/35

vn -0.866025 5.95702e-15 -0.5
f 23/92/34 22/91/36 30/90/34

f 31/93/36 30/90/34 22/91/36

vt -0.394893 0.551181
vt -0.412917 2.14544e-15
vn 0.793353 -7.06293e-15 0.608761
vt -0.394893 2.25646e-15
f 31/94/35 21/95/37 22/96/35

vt -0.412917 0.551181
f 21/95/37 31/94/35 32/97/37

vn -0.793353 7.06293e-15 -0.608761
f 22/96/36 21/95/38 31/94/36

f 32/97/38 31/94/36 21/95/38

vt -0.377842 0.551181
vt -0.395867 2.56674e-15
vn 0.707107 -8.04799e-15 0.707107
vt -0.377842 2.78878e-15
f 32/98/37 20/99/39 21/100/37

vt -0.395867 0.551181
f 20/99/39 32/98/37 33/101/39

vn -0.707107 8.04799e-15 -0.707107
f 21/100/38 20/99/40 32/98/38

f 33/101/40 32/98/38 20/99/40

vt -0.372197 0.551181
vn 0.608761 -8.89535e-15 0.793353
vt -0.354173 3.24916e-15
vt -0.354173 0.551181
f 34/102/41 20/103/39 33/104/39

vt -0.372197 3.13813e-15
f 20/103/39 34/102/41 19/105/41

vn -0.608761 8.89535e-15 -0.793353
f 19/105/42 34/102/42 20/103/40

vt -0.324289 0.551181
vt -0.342313 3.81943e-15
vn 0.5 -9.59051e-15 0.866025
vt -0.324289 3.81943e-15
f 34/106/41 18/107/43 19/108/41

vt -0.342313 0.551181
f 18/107/43 34/106/41 35/109/43

vn -0.5 9.59051e-15 -0.866025
f 19/108/42 18/107/44 34/106/42

f 35/109/44 34/106/42 18/107/44

vt -0.306726 0.551181
vn 0.382683 -1.01216e-14 0.92388
vt -0.288702 4.45848e-15
vt -0.288702 0.551181
f 36/110/45 18/111/43 35/112/43

vt -0.306726 4.34745e-15
f 18/111/43 36/110/45 17/113/45

vn -0.382683 1.01216e-14 -0.92388
f 17/113/46 36/110/46 18/111/44

vt -0.248021 0.551181
vt -0.266046 4.90487e-15
vn 0.258819 -1.04795e-14 0.965926
vt -0.248021 4.90487e-15
f 36/114/45 16/115/47 17/116/45

vt -0.266046 0.551181
f 16/115/47 36/114/45 37/117/47

vn -0.258819 1.04795e-14 -0.965926
f 17/116/46 16/115/48 36/114/46

f 37/117/48 36/114/46 16/115/48

vt -0.220967 0.551181
vn 0.130526 -1.0658e-14 0.991445
vt -0.202943 5.34567e-15
vt -0.202943 0.551181
f 38/118/49 16/119/47 37/120/47

vt -0.220967 5.23465e-15
f 16/119/47 38/118/49 15/121/49

vn -0.130526 1.0658e-14 -0.991445
f 15/121/50 38/118/50 16/119/48

vt -0.154237 0.551181
vt -0.172262 5.64157e-15
vn 0.0654031 -1.0679e-14 0.997859
vt -0.154237 5.53055e-15
f 38/122/49 14/123/51 15/124/49

vt -0.172262 0.551181
f 14/123/51 38/122/49 39/125/51

vn -0.0654031 1.0679e-14 -0.997859
f 15/124/50 14/123/52 38/122/50

f 39/125/52 38/122/50 14/123/52

vt -0.137795 0.551181
vn 1.02232e-14 -1.06542e-14 1
vt -3.79921 8.84041e-15
vt -0.137795 5.73178e-15
f 39/126/53 13/127/53 14/128/53

vt -3.79921 0.551181
f 13/127/53 39/126/53 40/129/53

vn -1.02232e-14 1.06542e-14 -1
f 14/128/54 13/127/54 39/126/54

f 40/129/54 39/126/54 13/127/54

vt -3.75632 0.551181
vn -0.0654031 -1.05839e-14 0.997859
vt -3.77434 1.13953e-14
vn -0.130526 -1.04682e-14 0.991445
vt -3.75632 1.13953e-14
f 40/130/55 60/131/56 13/132/55

vt -3.77434 0.551181
f 60/131/56 40/130/55 41/133/56

vn 0.0654031 1.05839e-14 -0.997859
vn 0.130526 1.04682e-14 -0.991445
f 13/132/57 60/131/58 40/130/57

f 60/46/12 3/45/12 13/22/12

f 59/47/12 3/45/12 60/46/12

f 58/48/12 3/45/12 59/47/12

f 57/49/12 3/45/12 58/48/12

f 56/50/12 3/45/12 57/49/12

f 55/51/12 3/45/12 56/50/12

f 55/51/11 3/45/11 54/52/11

f 54/52/12 3/45/12 55/51/12

f 54/52/11 3/45/11 53/53/11

f 53/53/12 3/45/12 54/52/12

f 53/53/11 3/45/11 52/54/11

f 52/54/12 3/45/12 53/53/12

f 52/54/11 3/45/11 51/55/11

f 51/55/12 3/45/12 52/54/12

f 51/55/11 3/45/11 1/56/11

f 1/56/12 3/45/12 51/55/12

vt -2.93119 0.551181
vn -0.5 -8.86317e-15 0.866025
vt -2.94921 2.49857e-14
vt -2.93119 2.48747e-14
f 44/134/59 56/135/29 57/136/59

vt -2.94921 0.551181
f 56/135/29 44/134/59 45/137/29

vn 0.5 8.86317e-15 -0.866025
f 57/136/60 56/135/30 44/134/60

f 45/137/30 44/134/60 56/135/30

vt -3.24229 2.32177e-14
vt -3.22427 0.551181
vn -0.382683 -9.56489e-15 0.92388
vt -3.24229 0.551181
f 57/138/59 43/139/61 44/140/59

vt -3.22427 2.31067e-14
f 43/139/61 57/138/59 58/141/61

vn 0.382683 9.56489e-15 -0.92388
f 58/141/62 57/138/60 43/139/62

f 44/140/60 43/139/62 57/138/60

vt -3.48005 2.0198e-14
vt -3.46203 0.551181
vn -0.258819 -1.0103e-14 0.965926
vt -3.48005 0.551181
f 58/142/61 42/143/63 43/144/61

vt -3.46203 2.0087e-14
f 42/143/63 58/142/61 59/145/63

vn 0.258819 1.0103e-14 -0.965926
f 59/145/64 58/142/62 42/143/64

f 43/144/62 42/143/64 58/142/62

vt -3.65842 1.61292e-14
vt -3.64039 0.551181
vt -3.65842 0.551181
f 59/146/63 41/147/56 42/148/63

vt -3.64039 1.61292e-14
f 41/147/56 59/146/63 60/149/56

f 60/149/58 59/146/64 41/147/58

f 42/148/64 41/147/58 59/146/64

f 41/133/58 40/130/57 60/131/58

f 3/45/12 6/19/12 13/22/12

f 37/120/48 16/119/48 38/118/50

f 35/112/44 18/111/44 36/110/46

f 33/104/40 20/103/40 34/102/42

f 46/79/28 45/78/30 55/77/28

