# Alias OBJ Model File
# Exported from SketchUp, (c) 2000-2012 Trimble Navigation Limited
# File units = millimeters

mtllib top.mtl

g Mesh1 Model

usemtl wood3
v 40.3308 26.2129 -62.9912
vt -1.06765 0.444287
vn -1 -5.76122e-15 3.77084e-16
v 40.3308 22.7129 64.5088
vt 1.09337 0.384965
v 40.3308 26.2129 64.5088
vt 1.09337 0.444287
f 1/1/1 2/2/1 3/3/1

v 40.3308 22.7129 -62.9912
vt -1.06765 0.384965
f 2/2/1 1/1/1 4/4/1

vn 1 5.76122e-15 -3.77084e-16
f 3/3/2 2/2/2 1/1/2

vt 0.289771 0.384965
vn -0.707107 -1.07507e-15 -0.707107
v 37.8308 26.2129 67.0088
vt 0.349695 0.444287
vt 0.289771 0.444287
f 2/5/3 5/6/3 3/7/3

v 37.8308 20.7129 67.0088
vt 0.349695 0.351066
f 2/5/3 6/8/3 5/6/3

v 41.8308 20.7129 63.0088
vt 0.253816 0.351066
f 6/8/3 2/5/3 7/9/3

vn 0.707107 1.07507e-15 0.707107
f 7/9/4 2/5/4 6/8/4

v 41.8308 22.7129 63.0088
vt 0.253816 0.384965
f 8/10/3 7/9/3 2/5/3

v 41.8308 22.7129 -61.4912
vt -1.04222 0.384965
vn -1 -1.21289e-16 2.77556e-16
vt 1.06795 0.351066
vt 1.06795 0.384965
f 9/11/5 7/12/5 8/13/5

v 41.8308 20.7129 -61.4912
vt -1.04222 0.351066
f 7/12/5 9/11/5 10/14/5

vn 1 1.21289e-16 -2.77556e-16
f 8/13/6 7/12/6 9/11/6

f 2/5/4 7/9/4 8/10/4

vt -0.683572 -1.09337
vn -7.39862e-15 -1 9.90743e-17
vt -0.708996 1.04222
vt -0.708996 -1.06795
f 2/15/7 9/16/7 8/17/7

vt -0.683572 1.06765
f 9/16/7 2/15/7 4/18/7

vn 7.39862e-15 1 -9.90743e-17
f 4/18/8 2/15/8 9/16/8

f 4/4/2 1/1/2 2/2/2

v 39.3308 26.2129 -63.9912
vt -0.295551 0.444287
vn -0.707107 -9.27231e-15 0.707107
vt -0.271582 0.384965
vt -0.271582 0.444287
f 11/19/9 4/20/9 1/21/9

v 39.3308 22.7129 -63.9912
vt -0.295551 0.384965
f 12/22/9 4/20/9 11/19/9

v 37.8308 20.7129 -65.4912
vt -0.331506 0.351066
f 13/23/9 4/20/9 12/22/9

vt -0.235627 0.351066
f 10/24/9 4/20/9 13/23/9

vt -0.235627 0.384965
f 4/20/9 10/24/9 9/25/9

vn 0.707107 9.27231e-15 -0.707107
f 9/25/10 10/24/10 4/20/10

f 10/14/6 9/11/6 7/12/6

vt 0.708996 1.04222
vn -1.21289e-16 1 7.88802e-17
vt 0.641199 -1.13574
vt 0.708996 -1.06795
f 10/26/11 6/27/11 7/28/11

vt 0.641199 1.11002
f 13/29/11 6/27/11 10/26/11

v -38.1692 20.7129 67.0088
vt -0.646936 -1.13574
f 13/29/11 14/30/11 6/27/11

v -38.1692 20.7129 -65.4912
vt -0.646936 1.11002
f 15/31/11 14/30/11 13/29/11

v -42.1692 20.7129 63.0088
vt -0.714733 -1.06795
f 15/31/11 16/32/11 14/30/11

v -42.1692 20.7129 -61.4912
vt -0.714733 1.04222
f 16/32/11 15/31/11 17/33/11

vn 1.21289e-16 -1 -7.88802e-17
f 17/33/12 15/31/12 16/32/12

v -38.1692 22.7129 -65.4912
vt 0.32745 0.384965
vn 0.707107 -3.10525e-16 0.707107
vt 0.231571 0.351066
vt 0.32745 0.351066
f 18/34/13 17/35/13 15/36/13

v -42.1692 22.7129 -61.4912
vt 0.231571 0.384965
f 17/35/13 18/34/13 19/37/13

vn -0.707107 3.10525e-16 -0.707107
f 15/36/14 17/35/14 18/34/14

f 19/37/14 18/34/14 17/35/14

v -39.6692 22.7129 -63.9912
vt 0.291495 0.384965
f 19/37/13 18/34/13 20/38/13

f 20/38/14 18/34/14 19/37/14

vt 0.646936 1.11002
vn -1.66879e-16 -1 7.44103e-15
vt -0.666623 1.0846
vt 0.67236 1.0846
f 18/39/15 12/40/15 20/41/15

v 37.8308 22.7129 -65.4912
vt -0.641199 1.11002
f 12/40/15 18/39/15 21/42/15

vn 1.66879e-16 1 -7.44103e-15
f 20/41/16 12/40/16 18/39/16

vt 0.666623 0.444287
vn 2.15088e-16 -4.71168e-15 1
vt -0.67236 0.384965
vt 0.666623 0.384965
f 11/43/17 20/44/17 12/45/17

v -39.6692 26.2129 -63.9912
vt -0.67236 0.444287
f 20/44/17 11/43/17 22/46/17

vn -2.15088e-16 4.71168e-15 -1
f 12/45/18 20/44/18 11/43/18

f 22/46/18 11/43/18 20/44/18

v 46.3308 26.2129 -69.9912
vt 0.785267 1.18629
vn -6.06444e-17 1 3.94401e-17
vt -0.67236 1.0846
vt 0.666623 1.0846
f 23/47/19 22/48/19 11/49/19

v -46.6692 26.2129 -69.9912
vt -0.791004 1.18629
f 24/50/19 22/48/19 23/47/19

v -40.6692 26.2129 -62.9912
vt -0.689309 1.06765
f 22/48/19 24/50/19 25/51/19

vn 6.06444e-17 -1 -3.94401e-17
f 23/47/20 22/48/20 24/50/20

f 11/49/20 22/48/20 23/47/20

vt 0.683572 1.06765
f 23/47/19 11/49/19 1/52/19

f 1/52/20 11/49/20 23/47/20

f 1/21/10 4/20/10 11/19/10

f 11/19/10 4/20/10 12/22/10

f 12/22/10 4/20/10 13/23/10

f 13/23/10 4/20/10 10/24/10

f 10/26/12 6/27/12 13/29/12

f 7/28/12 6/27/12 10/26/12

f 6/27/12 14/30/12 13/29/12

v -38.1692 26.2129 67.0088
vt 0.646936 0.444287
vn -2.77556e-16 7.88802e-17 -1
vt -0.641199 0.351066
vt 0.646936 0.351066
f 26/53/21 6/54/21 14/55/21

vt -0.641199 0.444287
f 6/54/21 26/53/21 5/56/21

vn 2.77556e-16 -7.88802e-17 1
f 14/55/22 6/54/22 26/53/22

f 5/56/22 26/53/22 6/54/22

v 46.3308 26.2129 73.0088
vt 0.785267 -1.23744
f 26/30/19 27/57/19 5/27/19

v -46.6692 26.2129 73.0088
vt -0.791004 -1.23744
f 26/30/19 28/58/19 27/57/19

v -40.6692 26.2129 64.5088
vt -0.689309 -1.09337
f 29/59/19 28/58/19 26/30/19

f 28/58/19 29/59/19 25/51/19

f 25/51/20 29/59/20 28/58/20

vt -1.09337 0.444287
v -40.6692 22.7129 -62.9912
vt 1.06765 0.384965
vt 1.06765 0.444287
f 29/60/6 30/61/6 25/62/6

v -40.6692 22.7023 64.5088
vt -1.09337 0.384784
f 30/61/6 29/60/6 31/63/6

f 31/63/5 29/60/5 30/61/5

vt -0.345639 0.444287
vn 0.707107 4.53874e-16 -0.707107
vt -0.285714 0.384784
vt -0.285714 0.444287
f 26/64/23 31/65/23 29/66/23

vt -0.345639 0.351066
f 14/67/23 31/65/23 26/64/23

v -42.1692 22.6916 63.0088
vt -0.24976 0.384604
f 14/67/23 32/68/23 31/65/23

vt -0.24976 0.351066
f 32/68/23 14/67/23 16/69/23

vn -0.707107 -4.53874e-16 0.707107
f 16/69/24 14/67/24 32/68/24

f 14/30/12 16/32/12 15/31/12

f 13/29/12 14/30/12 15/31/12

vt 0.641199 0.351066
vn 4.25975e-16 -7.88802e-17 1
vt -0.646936 0.384965
vt -0.646936 0.351066
f 13/70/25 18/71/25 15/72/25

vt 0.641199 0.384965
f 18/71/25 13/70/25 21/73/25

vn -4.25975e-16 7.88802e-17 -1
f 15/72/26 18/71/26 13/70/26

f 21/73/26 13/70/26 18/71/26

vt -0.331506 0.384965
f 13/23/9 12/22/9 21/74/9

f 21/74/10 12/22/10 13/23/10

f 21/42/16 18/39/16 12/40/16

f 31/65/24 32/68/24 14/67/24

vt -1.04187 -0.750872
vn 0.00354681 -0.999994 -0.000126151
vt 1.09147 -0.649553
vt -1.06818 -0.726367
f 32/75/27 30/76/27 31/77/27

vt 1.06697 -0.675865
f 30/76/27 32/75/27 19/78/27

vn -0.00354681 0.999994 0.000126151
f 19/78/28 32/75/28 30/76/28

vt -1.06795 0.384604
vt 1.04222 0.351066
vt 1.04222 0.384965
f 32/79/6 17/80/6 19/81/6

vt -1.06795 0.351066
f 17/80/6 32/79/6 16/82/6

f 16/82/5 32/79/5 17/80/5

f 19/81/5 17/80/5 32/79/5

f 31/77/28 30/76/28 32/75/28

vt 0.267525 0.384965
f 19/37/13 20/38/13 30/83/13

f 30/83/14 20/38/14 19/37/14

vt 0.291495 0.444287
f 22/84/13 30/83/13 20/38/13

vt 0.267525 0.444287
f 30/83/13 22/84/13 25/85/13

f 20/38/14 30/83/14 22/84/14

f 25/85/14 22/84/14 30/83/14

f 25/51/20 24/50/20 22/48/20

f 25/51/19 24/50/19 28/58/19

f 28/58/20 24/50/20 25/51/20

vt 1.23744 0.444287
vn -1 -6.06444e-17 2.77556e-16
v -46.6692 29.2129 -69.9912
vt -1.18629 0.495134
vt -1.18629 0.444287
f 28/86/29 33/87/29 24/88/29

v -46.6692 29.2129 73.0088
vt 1.23744 0.495134
f 33/87/29 28/86/29 34/89/29

vn 1 6.06444e-17 -2.77556e-16
f 34/89/30 28/86/30 33/87/30

vt 0.785267 0.444287
vn 2.77556e-16 -3.94401e-17 1
vt -0.791004 0.495134
vt -0.791004 0.444287
f 27/90/31 34/91/31 28/92/31

v 46.3308 29.2129 73.0088
vt 0.785267 0.495134
f 34/91/31 27/90/31 35/93/31

vn -2.77556e-16 3.94401e-17 -1
f 28/92/32 34/91/32 27/90/32

f 35/93/32 27/90/32 34/91/32

vt 1.18629 0.444287
vn 1 6.06444e-17 -2.62766e-16
vt -1.23744 0.495134
vt -1.23744 0.444287
f 23/94/33 35/95/33 27/96/33

v 46.3308 29.2129 -69.9912
vt 1.18629 0.495134
f 35/95/33 23/94/33 36/97/33

vn -1 -6.06444e-17 2.62766e-16
f 27/96/34 35/95/34 23/94/34

f 36/97/34 23/94/34 35/95/34

vt -0.785267 0.444287
vn -1.86589e-16 3.94401e-17 -1
vt 0.791004 0.495134
vt -0.785267 0.495134
f 23/98/35 33/99/35 36/100/35

vt 0.791004 0.444287
f 33/99/35 23/98/35 24/101/35

vn 1.86589e-16 -3.94401e-17 1
f 24/101/36 23/98/36 33/99/36

f 36/100/36 33/99/36 23/98/36

usemtl top1
vt 0 0
vt 0.999913 1
vt -4.44089e-16 1
f 34/102/19 36/103/19 33/104/19

vt 0.999913 2.22045e-16
f 36/103/19 34/102/19 35/105/19

usemtl wood3
f 33/50/20 36/47/20 34/58/20

f 35/57/20 34/58/20 36/47/20

f 24/88/30 33/87/30 28/86/30

vt 0.683572 -1.09337
f 3/106/19 27/57/19 23/47/19

f 5/27/19 27/57/19 3/106/19

f 5/27/20 27/57/20 26/30/20

f 3/106/20 27/57/20 5/27/20

f 23/47/20 27/57/20 3/106/20

f 23/47/19 1/52/19 3/106/19

f 3/106/20 1/52/20 23/47/20

f 3/7/4 5/6/4 2/5/4

f 5/6/4 6/8/4 2/5/4

f 27/57/20 28/58/20 26/30/20

f 26/30/20 28/58/20 29/59/20

f 29/66/24 31/65/24 26/64/24

f 26/64/24 31/65/24 14/67/24

f 25/62/5 30/61/5 29/60/5

f 8/17/8 9/16/8 2/15/8

